<?xml version="1.0" encoding="iso-8859-1"?>
<!-- Generator: Adobe Illustrator 19.0.0, SVG Export Plug-In . SVG Version: 6.00 Build 0)  -->
<svg version="1.1" id="Capa_1" xmlns="http://www.w3.org/2000/svg" xmlns:xlink="http://www.w3.org/1999/xlink" x="0px" y="0px"
	 viewBox="0 0 512 512" style="enable-background:new 0 0 512 512;" xml:space="preserve">
<path style="fill:#79D60D;" d="M256,512l14.32-6.663c127.238-59.203,208.607-186.81,208.607-327.146V70.124h-40.54
	c-66.93,0-131.515-24.657-181.418-69.259L256,0l-0.968,0.866C205.129,45.468,140.544,70.124,73.614,70.124h-40.54V178.19
	c0,140.336,81.369,267.943,208.607,327.146L256,512z"/>
<path style="fill:#3CC602;" d="M256,512l14.32-6.663c127.238-59.203,208.607-186.81,208.607-327.146V70.124h-40.54
	c-66.93,0-131.515-24.657-181.418-69.259L256,0V512z"/>
<polygon style="fill:#F1F1F2;" points="344.455,221.059 289.044,221.059 289.044,165.648 222.956,165.648 222.956,221.059 
	167.545,221.059 167.545,287.147 222.956,287.147 222.956,342.558 289.044,342.558 289.044,287.147 344.455,287.147 "/>
<polygon style="fill:#E6E6E6;" points="344.455,221.059 289.044,221.059 289.044,165.648 256,165.648 256,342.558 289.044,342.558 
	289.044,287.147 344.455,287.147 "/>
<g>
</g>
<g>
</g>
<g>
</g>
<g>
</g>
<g>
</g>
<g>
</g>
<g>
</g>
<g>
</g>
<g>
</g>
<g>
</g>
<g>
</g>
<g>
</g>
<g>
</g>
<g>
</g>
<g>
</g>
</svg>
