<?xml version="1.0" encoding="iso-8859-1"?>
<!-- Generator: Adobe Illustrator 21.0.0, SVG Export Plug-In . SVG Version: 6.00 Build 0)  -->
<svg version="1.1" id="Capa_1" xmlns="http://www.w3.org/2000/svg" xmlns:xlink="http://www.w3.org/1999/xlink" x="0px" y="0px"
	 viewBox="0 0 512 512" style="enable-background:new 0 0 512 512;" xml:space="preserve">
<g>
	<path style="fill:#CB8252;" d="M300.138,167.724h-88.276c-14.626,0-26.483,11.857-26.483,26.483v35.31
		c0,4.875,3.952,8.828,8.828,8.828s8.828-3.952,8.828-8.828v-35.31c0-4.875,3.952-8.828,8.828-8.828h88.276
		c4.875,0,8.828,3.952,8.828,8.828v35.31c0,4.875,3.952,8.828,8.828,8.828s8.828-3.952,8.828-8.828v-35.31
		C326.621,179.581,314.764,167.724,300.138,167.724z"/>
	<path style="fill:#7F5B53;" d="M61.793,229.517h388.414c9.751,0,17.655,7.904,17.655,17.655v247.172
		c0,9.751-7.905,17.655-17.655,17.655H61.793c-9.751,0-17.655-7.905-17.655-17.655V247.172
		C44.138,237.422,52.042,229.517,61.793,229.517z"/>
	<path style="fill:#FFFFFF;" d="M353.103,294.223v19.156c0.171,4.27-1.425,8.421-4.414,11.476l-32.662,27.895l0.177,0.177
		l13.241,100.529c-0.353,6.179-8.598,8.916-11.476,3.796l-45.674-67.257l-29.352,27.101l0.706,39.539
		c0.397,4.697-2.433,9.068-6.881,10.627s-9.388-0.089-12.01-4.006L213.76,446.04l-19.686,10.681
		c-3.645,1.967-8.056,1.876-11.617-0.24s-5.75-5.946-5.765-10.088c-0.016-1.974,0.473-3.918,1.421-5.65l11.264-20.118
		l-16.852-10.946c-4.058-2.484-5.853-7.447-4.324-11.952c1.529-4.505,5.975-7.35,10.706-6.85l39.027,1.236l27.136-29.219
		l-67.575-45.453c-5.138-2.825-2.304-11.034,3.814-11.299l101.014,13.153l0.185,0.088l28.107-32.486
		c3.079-2.984,7.244-4.579,11.529-4.414l19.156,0.088C347.747,282.604,352.988,287.778,353.103,294.223z"/>
	<g>
		<path style="fill:#F0C419;" d="M105.931,512H61.793c-9.739-0.029-17.626-7.917-17.655-17.655v-44.138
			C78.265,450.207,105.931,477.873,105.931,512z"/>
		<path style="fill:#F0C419;" d="M61.793,229.517h44.138c0,34.127-27.666,61.793-61.793,61.793v-44.138
			C44.167,237.434,52.054,229.546,61.793,229.517z"/>
		<path style="fill:#F0C419;" d="M467.862,247.172v44.138c-34.127,0-61.793-27.666-61.793-61.793h44.138
			C459.945,229.546,467.833,237.434,467.862,247.172z"/>
		<path style="fill:#F0C419;" d="M467.862,450.207v44.138c-0.029,9.739-7.917,17.626-17.655,17.655h-44.138
			C406.069,477.873,433.735,450.207,467.862,450.207z"/>
		<path style="fill:#F0C419;" d="M44.138,291.31c34.127,0,61.793-27.666,61.793-61.793"/>
		<path style="fill:#F0C419;" d="M467.862,291.31c-34.127,0-61.793-27.666-61.793-61.793"/>
		<path style="fill:#F0C419;" d="M44.138,450.207c34.127,0,61.793,27.666,61.793,61.793"/>
		<path style="fill:#F0C419;" d="M467.862,450.207c-34.127,0-61.793,27.666-61.793,61.793"/>
	</g>
	<path style="fill:#E64C3C;" d="M511.912,156.425c-2.295-23.217-36.988-41.666-79.36-41.666c-41.137,0-74.946,17.39-79.007,39.636
		c-0.079-2.048-0.212-4.732-0.433-7.945c-4.805-27.972-16.999-54.152-35.319-75.829C308.966,61.793,303.669,4.537,256.53,0
		C396.535,0,509.705,74.681,511.912,156.425z"/>
	<path style="fill:#F0C419;" d="M256,0c-35.787,3.452-52.966,52.966-61.793,61.793c-20.151,21.808-32.271,49.83-34.366,79.448
		c-0.945,10.831-0.945,17.655-0.945,17.655c0-24.364-35.575-44.138-79.448-44.138c-42.372,0-77.065,18.45-79.36,41.666
		C2.295,74.77,116.259,0.177,256,0z"/>
	<path style="fill:#4482C3;" d="M353.545,154.394v0.265c-0.321,1.389-0.469,2.812-0.441,4.237c0-24.364-43.432-44.138-97.103-44.138
		s-97.103,19.774-97.103,44.138c0,0,0-149.539,97.103-158.897h0.53C343.57,8.386,352.574,129.324,353.545,154.394z"/>
</g>
<g>
</g>
<g>
</g>
<g>
</g>
<g>
</g>
<g>
</g>
<g>
</g>
<g>
</g>
<g>
</g>
<g>
</g>
<g>
</g>
<g>
</g>
<g>
</g>
<g>
</g>
<g>
</g>
<g>
</g>
</svg>
